<?xml version="1.0" standalone="no"?>
<!DOCTYPE svg PUBLIC "-//W3C//DTD SVG 20010904//EN"
 "http://www.w3.org/TR/2001/REC-SVG-20010904/DTD/svg10.dtd">
<svg version="1.0" xmlns="http://www.w3.org/2000/svg"
 width="192.000000pt" height="192.000000pt" viewBox="0 0 192.000000 192.000000"
 preserveAspectRatio="xMidYMid meet">
<metadata>
Created by potrace 1.14, written by Peter Selinger 2001-2017
</metadata>
<g transform="translate(0.000000,192.000000) scale(0.100000,-0.100000)"
fill="#000000" stroke="none">
<path d="M0 960 l0 -960 960 0 960 0 0 960 0 960 -960 0 -960 0 0 -960z m1201
555 c8 -8 18 -13 21 -9 3 3 21 -1 40 -9 25 -10 40 -28 61 -70 15 -31 27 -67
27 -82 0 -14 9 -43 20 -65 12 -24 20 -59 20 -92 0 -29 3 -64 7 -78 l7 -25 7
30 c10 40 4 -73 -10 -194 -13 -119 -14 -121 -69 -210 -38 -61 -47 -70 -53 -55
-6 14 -8 11 -8 -14 -1 -18 -5 -40 -11 -50 -5 -9 -23 -47 -39 -84 -17 -39 -36
-68 -44 -68 -8 0 -20 -6 -26 -13 -18 -22 -126 -19 -154 4 -13 11 -17 18 -9 19
7 0 11 4 7 10 -3 5 -12 7 -20 3 -8 -3 -15 0 -15 5 0 6 9 14 20 17 11 4 18 11
15 16 -9 13 12 11 34 -3 15 -9 28 -9 59 0 57 17 62 40 12 48 -43 7 -54 23 -17
25 16 1 14 3 -9 9 -18 4 -40 10 -50 15 -18 7 -18 8 1 15 11 5 33 9 49 9 45 1
21 14 -30 17 -25 1 -50 6 -56 12 -6 6 -17 8 -24 5 -10 -4 -14 3 -14 21 0 16 6
26 15 26 8 0 15 -5 15 -11 0 -6 5 -7 13 -2 12 8 16 9 69 12 20 1 26 5 21 17
-3 8 -12 13 -19 10 -14 -5 -30 11 -20 21 11 11 161 14 186 4 25 -10 25 -10 -5
-11 -16 -1 -52 -8 -80 -15 l-50 -14 53 5 c48 6 52 4 52 -16 0 -20 2 -20 38 10
29 24 38 27 40 15 5 -22 15 -19 45 13 42 44 33 89 -23 116 -8 4 -6 -1 5 -11
12 -10 24 -26 28 -37 6 -15 4 -17 -10 -11 -10 5 -32 9 -48 10 -17 2 -48 8 -69
13 -25 7 -45 8 -57 2 -28 -15 -59 -12 -86 10 -14 11 -35 20 -47 20 -36 0 -49
15 -42 45 6 24 11 27 37 21 40 -8 45 9 31 104 -18 126 -58 179 -135 181 -39 1
-61 10 -65 27 -1 8 1 11 6 8 14 -8 72 58 78 89 13 73 65 142 143 193 40 25
102 23 132 -3z m-300 -376 c11 -5 17 -14 14 -19 -3 -5 3 -11 14 -15 10 -3 26
-14 36 -25 17 -19 17 -21 0 -40 -13 -15 -18 -34 -16 -65 1 -25 -2 -45 -7 -45
-13 0 -36 -58 -37 -90 0 -19 -6 -26 -25 -28 -13 -2 -33 -10 -44 -18 -24 -16
-50 -19 -41 -4 11 18 -11 11 -30 -10 -18 -20 -17 -26 14 -75 11 -16 20 -36 20
-43 2 -24 -19 -1 -40 45 -18 39 -19 49 -8 75 9 22 9 38 0 68 -13 45 -12 130 2
148 5 7 34 12 66 13 56 1 56 1 21 12 -30 9 -32 11 -12 15 12 2 22 8 22 13 0 5
9 9 20 9 11 0 20 7 20 15 0 19 20 19 48 -1 13 -9 22 -11 22 -4 0 17 -65 40
-114 40 -45 0 -63 11 -51 30 8 13 81 13 106 -1z m-151 -123 c0 -2 -8 -10 -17
-17 -16 -13 -17 -12 -4 4 13 16 21 21 21 13z m100 -333 c0 -13 -3 -13 -15 -3
-8 7 -12 16 -9 21 8 13 24 1 24 -18z m361 -299 c-14 -54 -36 -81 -81 -104 -78
-40 -80 -18 -6 56 30 30 59 54 64 54 6 0 14 9 17 21 12 36 17 13 6 -27z m-151
-125 c0 -13 -52 -49 -71 -49 -18 0 -35 33 -25 49 7 11 96 11 96 0z"/>
<path d="M1245 1193 c-86 -5 -147 -55 -68 -56 l28 0 -32 -14 c-36 -14 -41 -27
-19 -49 20 -19 82 -18 90 1 5 14 10 13 36 -7 24 -17 33 -19 42 -10 18 18 -4
47 -33 45 -32 -2 -81 17 -76 31 5 16 81 26 118 16 18 -5 35 -7 38 -5 7 8 -41
55 -53 53 -6 -1 -38 -3 -71 -5z"/>
<path d="M1175 1032 c6 -5 26 -13 45 -17 23 -5 32 -4 25 3 -5 5 -26 13 -45 17
-23 5 -32 4 -25 -3z"/>
<path d="M1152 649 c-18 -12 -31 -24 -28 -27 8 -7 76 27 76 38 0 15 -12 12
-48 -11z"/>
</g>
</svg>
